<svg fill="none" height="704" viewBox="0 0 2910 704" width="2910" xmlns="http://www.w3.org/2000/svg" xmlns:xlink="http://www.w3.org/1999/xlink"><linearGradient id="a" gradientUnits="userSpaceOnUse" x1="2394.82" x2="2394.82" y1="0" y2="704"><stop offset="0" stop-opacity=".5"/><stop offset="1" stop-opacity="0"/></linearGradient><mask id="b" height="704" maskUnits="userSpaceOnUse" width="4790" x="0" y="0"><path d="m0 0h4789.65v704h-4789.65z" fill="url(#a)"/></mask><g mask="url(#b)"><path d="m0 0h4789.65v1333.2h-4789.65z" fill="#405368"/><g opacity=".25"><path clip-rule="evenodd" d="m485 970v-485h-242.5v485z" fill="#000" fill-rule="evenodd"/><path clip-rule="evenodd" d="m242.5 970v-485h-242.5v485z" fill="#979797" fill-rule="evenodd"/><path clip-rule="evenodd" d="m970 970v-485h-242.5v485z" fill="#fff" fill-rule="evenodd"/><path clip-rule="evenodd" d="m727.5 970v-485h-242.5v485z" fill="#4d4d4d" fill-rule="evenodd"/><path clip-rule="evenodd" d="m970 485v-242.5h-485v242.5z" fill="#000" fill-rule="evenodd"/><path clip-rule="evenodd" d="m727.5 485c-133.929 0-242.5-108.571-242.5-242.5h485c0 133.929-108.571 242.5-242.5 242.5z" fill="#979797" fill-rule="evenodd"/><path clip-rule="evenodd" d="m970 242.5v-242.50019091h-485v242.50019091z" fill="#fff" fill-rule="evenodd"/><path d="m727.5-.00048828v242.50048828l242.5-242.50048828z" fill="#4d4d4d"/><g clip-rule="evenodd" fill-rule="evenodd"><path d="m1455 727.5v-242.5h-485v242.5z" fill="#979797"/><path d="m1212.5 485c133.93 0 242.5 108.571 242.5 242.5h-485c0-133.929 108.57-242.5 242.5-242.5z" fill="#4d4d4d"/><path d="m485-.00048828v485.00048828h-242.5v-485.00048828z" fill="#979797"/><path d="m485-.00048828c-133.93 0-242.5 108.57048828-242.5 242.50148828v242.499h242.5z" fill="#4d4d4d"/><path d="m242.5 485v-485.0003199h-242.5v485.0003199z" fill="#fff"/><path d="m242.5 242.501c0 133.928-108.571 242.499-242.5 242.499v-485.00032405c133.929 0 242.5 108.57232405 242.5 242.50132405z" fill="#000"/><path d="m1455 485v-485.00034254h-485v485.00034254z" fill="#4d4d4d"/><path d="m1211.35 122.405c66.96 0 121.25 54.285 121.25 121.251 0 66.964-54.29 121.249-121.25 121.249-66.97 0-121.25-54.285-121.25-121.249 0-66.966 54.28-121.251 121.25-121.251z" fill="#fff"/></g></g><g opacity=".25"><path clip-rule="evenodd" d="m2910 485v-485.0003199h-242.5v485.0003199z" fill="#000" fill-rule="evenodd"/><path clip-rule="evenodd" d="m2667.5 485v-485.0003199h-242.5v485.0003199z" fill="#979797" fill-rule="evenodd"/><path clip-rule="evenodd" d="m2425 970v-485h-242.5v485z" fill="#fff" fill-rule="evenodd"/><path clip-rule="evenodd" d="m2182.5 970v-485h-242.5v485z" fill="#4d4d4d" fill-rule="evenodd"/><path clip-rule="evenodd" d="m2425 485v-242.5h-485v242.5z" fill="#000" fill-rule="evenodd"/><path clip-rule="evenodd" d="m2182.5 485c-133.93 0-242.5-108.571-242.5-242.5h485c0 133.929-108.57 242.5-242.5 242.5z" fill="#979797" fill-rule="evenodd"/><path clip-rule="evenodd" d="m2425 242.5v-242.50019091h-485v242.50019091z" fill="#fff" fill-rule="evenodd"/><path d="m2182.5-.00048828v242.50048828l242.5-242.50048828z" fill="#4d4d4d"/><g clip-rule="evenodd" fill-rule="evenodd"><path d="m1940 485v-242.5h-485v242.5z" fill="#979797"/><path d="m1455 485c0-133.93 108.57-242.5 242.5-242.5h242.5v242.5z" fill="#000"/><path d="m1940 242.5v-242.50016135h-485v242.50016135z" fill="#979797"/><path d="m1697.5-.0001681c133.93 0 242.5 108.5711681 242.5 242.5001681h-485c0-133.929 108.57-242.5001681 242.5-242.5001681z" fill="#4d4d4d"/><path d="m1940 485v485h-242.5v-485z" fill="#979797"/><path d="m1940 485c-133.93 0-242.5 108.571-242.5 242.501v242.499h242.5z" fill="#4d4d4d"/><path d="m1697.5 970v-485h-242.5v485z" fill="#fff"/><path d="m1697.5 727.501c0 133.928-108.57 242.499-242.5 242.499v-485c133.93 0 242.5 108.573 242.5 242.501z" fill="#000"/><path d="m2910 970v-485h-485v485z" fill="#4d4d4d"/><path d="m2666.35 607.405c66.96 0 121.25 54.285 121.25 121.251 0 66.964-54.29 121.249-121.25 121.249-66.97 0-121.25-54.285-121.25-121.249 0-66.966 54.28-121.251 121.25-121.251z" fill="#fff"/></g></g></g></svg>