<svg fill="none" height="34" viewBox="0 0 180 34" width="180" xmlns="http://www.w3.org/2000/svg"><path clip-rule="evenodd" d="m121.131 13.3934c-.387 0-.7.313-.7.6994v3.8467c0 .3864.313.6994.7.6994h7.343c.387 0 .7-.313.7-.6994v-3.8467c0-.3864-.313-.6994-.7-.6994zm35.555-11.88984h-5.161c-.407 0-.777.23554-.95.60606l-4.089 8.76038-4.089-8.76038c-.172-.37052-.543-.60606-.95-.60606h-5.161c-.528 0-.865.56239-.617 1.02851l7.285 13.65873-7.285 13.6591c-.248.4661.089 1.0285.617 1.0285h5.161c.407 0 .778-.2355.95-.606l4.089-8.7617 4.089 8.7617c.173.3705.543.606.95.606h5.161c.528 0 .866-.5624.616-1.0285l-7.285-13.6587 7.285-13.65913c.25-.46612-.088-1.02851-.616-1.02851zm-27.162 0h-16.087c-.579 0-1.049.46976-1.049 1.04902v27.27682c0 .5793.47 1.049 1.049 1.049h16.087c.386 0 .699-.3133.699-.6993v-3.8468c0-.3863-.313-.6993-.699-.6993h-10.841v-18.88401h10.841c.386 0 .699-.31295.699-.69935v-3.84673c0-.38606-.313-.69935-.699-.69935zm49.777 0h-18.185c-.386 0-.699.31329-.699.69935v3.84673c0 .3864.313.69935.699.69935h5.945v23.43011c0 .386.313.6993.699.6993h4.896c.387 0 .7-.3133.7-.6993v-23.43011h5.945c.386 0 .699-.31295.699-.69935v-3.84673c0-.38606-.313-.69935-.699-.69935zm-74.027 0h-4.196c-.387 0-.699.31262-.699.69935v17.99879l-8.3498-17.89095c-.2292-.49225-.7238-.80719-1.267-.80719h-4.3717c-.7725 0-1.3987.62657-1.3987 1.39869v27.27685c0 .3854.3136.6993.6993.6993h4.1964c.3871 0 .6994-.3139.6994-.6993v-18.0001l8.3491 17.8926c.2306.4916.7239.8068 1.268.8068h4.371c.772 0 1.399-.6265 1.399-1.399v-27.27649c0-.38673-.313-.69935-.7-.69935zm-80.1994 17.64774c0 6.1549-4.9894 11.1442-11.1442 11.1442-6.15488 0-11.14426-4.9893-11.14426-11.1442v-13.20024c0-.57727.43866-1.052 1.00105-1.1089l20.05971-2.00574c.0371-.00397.0748-.00595.1135-.00595.6153 0 1.1142.4992 1.1142 1.11452zm-.5574-19.1513c-.1125 0-.2233.0059547-.3328.0165408 0 0-21.17397 2.1172292-21.17397 2.1175592-1.69014.16706-3.01043 1.59222-3.01043 3.32669v13.69051c0 7.6935 6.23656 13.9304 13.9304 13.9304 7.6931 0 13.9303-6.2369 13.9303-13.9304v-15.80807c0-1.84662-1.4973-3.34323-3.3435-3.34323zm38.6628 1.50356h-4.8957c-.3871 0-.6994.31262-.6994.69935v18.88369c0 3.0131-1.4152 4.5464-4.1961 4.5464-2.7811 0-4.1967-1.5333-4.1967-4.5464v-18.88369c0-.38673-.3136-.69935-.6993-.69935h-4.8958c-.3857 0-.6993.31262-.6993.69935v18.88369c0 6.9531 3.5377 10.4912 10.4911 10.4912 6.9528 0 10.4906-3.5381 10.4906-10.4912v-18.88369c0-.38673-.3123-.69935-.6994-.69935zm-43.3991 5.50611c-.0381 0-.0755.00166-.1122.00563l-11.69866 1.16977c-.56438.05491-1.00503.53063-1.00503 1.10922v9.85701c0 3.8467 3.11829 6.965 6.96539 6.965 3.8467 0 6.965-3.1183 6.965-6.965v-11.0271c0-.61565-.4989-1.11453-1.1145-1.11453zm58.3266 6.38373h-7.3438c-.3854 0-.6994.3123-.6994.6994v3.8467c0 .3854.314.6994.6994.6994h7.3438c.3854 0 .6993-.314.6993-.6994v-3.8467c0-.3871-.3139-.6994-.6993-.6994z" fill="#fff" fill-rule="evenodd"/></svg>