<svg fill="none" height="64" viewBox="0 0 128 64" width="128" xmlns="http://www.w3.org/2000/svg"><path d="m68 2h30v60h-30z" fill="#1a1919"/><circle cx="30" cy="32" fill="#94a8b1" r="30"/><circle cx="98" cy="32" fill="#1a1919" r="30"/><path d="m128 32c0-3.9397-.776-7.8407-2.284-11.4805-1.507-3.6398-3.717-6.9469-6.503-9.7327-2.786-2.78576-6.093-4.99555-9.732-6.50319-3.64-1.50764-7.541-2.28361-11.481-2.28361v30z" fill="#94a8b1"/><path d="m0 2h60v30h-60z" fill="#1a1919"/><path d="m30 2h30v30h-30z" fill="#ced5d5"/><path d="m0 2h30l-30 30z" fill="#ced5d5"/><path d="m68 32h30v30h-30z" fill="#1a1919"/><path d="m68 2h30v60h-30z" fill="#94a8b1"/><g fill="#ced5d5"><path d="m68 32 30 30h-30z"/><path d="m98 32-30-30h30z"/></g></svg>