<svg fill="none" height="128" viewBox="0 0 128 128" width="128" xmlns="http://www.w3.org/2000/svg"><path d="m68 34h30v60h-30z" fill="#1a1919"/><circle cx="30" cy="64" fill="#94a8b1" r="30"/><circle cx="98" cy="64" fill="#1a1919" r="30"/><path d="m128 64c0-3.9397-.776-7.8407-2.284-11.4805-1.507-3.6398-3.717-6.9469-6.503-9.7327s-6.093-4.9955-9.732-6.5032c-3.64-1.5076-7.541-2.2836-11.481-2.2836v30z" fill="#94a8b1"/><path d="m0 34h60v30h-60z" fill="#1a1919"/><path d="m30 34h30v30h-30z" fill="#ced5d5"/><path d="m68 64h30v30h-30z" fill="#1a1919"/><path d="m68 34h30v60h-30z" fill="#94a8b1"/><g fill="#ced5d5"><path d="m68 64 30 30h-30z"/><path d="m98 64-30-30h30z"/></g></svg>