<svg fill="none" height="64" viewBox="0 0 64 64" width="64" xmlns="http://www.w3.org/2000/svg" xmlns:xlink="http://www.w3.org/1999/xlink"><clipPath id="a"><path d="m0 0h64v64h-64z"/></clipPath><g clip-path="url(#a)"><path d="m0 0h32v64h-32z" fill="#1a1919"/><circle cx="32" cy="32" fill="#1a1919" r="32"/><path d="m64 32c0-4.2023-.8277-8.3635-2.4359-12.2459-1.6081-3.8824-3.9652-7.41-6.9367-10.38152-2.9715-2.97147-6.4991-5.32857-10.3815-6.93673-3.8825-1.608146-8.0436-2.43585018-12.2459-2.43585v32z" fill="#94a8b1"/><path d="m0 32h32v32h-32z" fill="#1a1919"/><path d="m0 0h32v64h-32z" fill="#94a8b1"/><g fill="#ced5d5"><path d="m0 32 32 32h-32z"/><path d="m32 32-32.00000245-32.00000089 32.00000245.0000028z"/></g></g></svg>